<svg xmlns="http://www.w3.org/2000/svg" xmlns:xlink="http://www.w3.org/1999/xlink" width="175" zoomAndPan="magnify" viewBox="0 0 131.25 42" height="56" preserveAspectRatio="xMidYMid meet" version="1.0"><defs><g/></defs><g fill="#000000" fill-opacity="1"><g transform="translate(1.915334, 31.22003)"><g><path d="M 22.34375 0 L 16.34375 0 L 14.53125 -8.1875 C 14.445312 -8.53125 14.3125 -9.210938 14.125 -10.234375 C 13.945312 -11.253906 13.8125 -12.109375 13.71875 -12.796875 C 13.65625 -12.242188 13.546875 -11.550781 13.390625 -10.71875 C 13.234375 -9.894531 13.078125 -9.132812 12.921875 -8.4375 C 12.773438 -7.738281 12.15625 -4.925781 11.0625 0 L 5.0625 0 L 0.40625 -18.8125 L 5.296875 -18.8125 L 7.34375 -9.375 C 7.8125 -7.289062 8.128906 -5.632812 8.296875 -4.40625 C 8.410156 -5.28125 8.609375 -6.46875 8.890625 -7.96875 C 9.179688 -9.46875 9.453125 -10.707031 9.703125 -11.6875 L 11.359375 -18.8125 L 16.0625 -18.8125 L 17.671875 -11.6875 C 17.941406 -10.550781 18.21875 -9.234375 18.5 -7.734375 C 18.789062 -6.242188 18.984375 -5.132812 19.078125 -4.40625 C 19.191406 -5.351562 19.492188 -7 19.984375 -9.34375 L 22.078125 -18.8125 L 26.96875 -18.8125 Z M 22.34375 0 "/></g></g></g><g fill="#000000" fill-opacity="1"><g transform="translate(29.293799, 31.22003)"><g><path d="M 2.03125 0 L 2.03125 -18.8125 L 7.140625 -18.8125 L 7.140625 0 Z M 2.03125 0 "/></g></g></g><g fill="#000000" fill-opacity="1"><g transform="translate(38.467129, 31.22003)"><g><path d="M 19.9375 0 L 13.28125 0 L 6.40625 -13.25 L 6.296875 -13.25 C 6.453125 -11.164062 6.53125 -9.578125 6.53125 -8.484375 L 6.53125 0 L 2.03125 0 L 2.03125 -18.8125 L 8.671875 -18.8125 L 15.515625 -5.734375 L 15.59375 -5.734375 C 15.46875 -7.628906 15.40625 -9.148438 15.40625 -10.296875 L 15.40625 -18.8125 L 19.9375 -18.8125 Z M 19.9375 0 "/></g></g></g><g fill="#000000" fill-opacity="1"><g transform="translate(60.441949, 31.22003)"><g><path d="M 13.203125 0 L 2.03125 0 L 2.03125 -18.8125 L 13.203125 -18.8125 L 13.203125 -14.734375 L 7.109375 -14.734375 L 7.109375 -11.765625 L 12.75 -11.765625 L 12.75 -7.6875 L 7.109375 -7.6875 L 7.109375 -4.140625 L 13.203125 -4.140625 Z M 13.203125 0 "/></g></g></g><g fill="#dd88f7" fill-opacity="1"><g transform="translate(74.896436, 31.22003)"><g><path d="M 10.21875 0 L 6.375 -13.546875 L 6.265625 -13.546875 C 6.441406 -11.234375 6.53125 -9.441406 6.53125 -8.171875 L 6.53125 0 L 2.03125 0 L 2.03125 -18.8125 L 8.796875 -18.8125 L 12.71875 -5.453125 L 12.828125 -5.453125 L 16.671875 -18.8125 L 23.453125 -18.8125 L 23.453125 0 L 18.78125 0 L 18.78125 -8.25 C 18.78125 -8.675781 18.785156 -9.148438 18.796875 -9.671875 C 18.804688 -10.191406 18.863281 -11.472656 18.96875 -13.515625 L 18.859375 -13.515625 L 15.0625 0 Z M 10.21875 0 "/></g></g></g><g fill="#dd88f7" fill-opacity="1"><g transform="translate(100.37076, 31.22003)"><g><path d="M 2.03125 0 L 2.03125 -18.8125 L 7.140625 -18.8125 L 7.140625 0 Z M 2.03125 0 "/></g></g></g><g fill="#dd88f7" fill-opacity="1"><g transform="translate(109.54409, 31.22003)"><g><path d="M 18.96875 0 L 13.09375 0 L 9.421875 -5.875 L 5.796875 0 L 0.046875 0 L 6.296875 -9.625 L 0.421875 -18.8125 L 6.0625 -18.8125 L 9.453125 -12.984375 L 12.71875 -18.8125 L 18.515625 -18.8125 L 12.5625 -9.21875 Z M 18.96875 0 "/></g></g></g></svg>