<svg xmlns="http://www.w3.org/2000/svg" xmlns:xlink="http://www.w3.org/1999/xlink" width="85" zoomAndPan="magnify" viewBox="0 0 63.75 63.749998" height="85" preserveAspectRatio="xMidYMid meet" version="1.0"><defs><g/></defs><g fill="#000000" fill-opacity="1"><g transform="translate(2.393207, 24.773297)"><g><path d="M 18.046875 0 L 13.203125 0 L 11.734375 -6.625 C 11.671875 -6.894531 11.5625 -7.441406 11.40625 -8.265625 C 11.257812 -9.097656 11.15625 -9.789062 11.09375 -10.34375 C 11.03125 -9.882812 10.9375 -9.320312 10.8125 -8.65625 C 10.6875 -7.988281 10.5625 -7.375 10.4375 -6.8125 C 10.320312 -6.25 9.820312 -3.976562 8.9375 0 L 4.078125 0 L 0.328125 -15.1875 L 4.28125 -15.1875 L 5.9375 -7.578125 C 6.3125 -5.890625 6.566406 -4.546875 6.703125 -3.546875 C 6.796875 -4.253906 6.957031 -5.210938 7.1875 -6.421875 C 7.414062 -7.640625 7.628906 -8.648438 7.828125 -9.453125 L 9.171875 -15.1875 L 12.984375 -15.1875 L 14.28125 -9.453125 C 14.5 -8.523438 14.722656 -7.457031 14.953125 -6.25 C 15.179688 -5.050781 15.332031 -4.148438 15.40625 -3.546875 C 15.5 -4.316406 15.742188 -5.648438 16.140625 -7.546875 L 17.828125 -15.1875 L 21.796875 -15.1875 Z M 18.046875 0 "/></g></g></g><g fill="#000000" fill-opacity="1"><g transform="translate(24.511324, 24.773297)"><g><path d="M 1.640625 0 L 1.640625 -15.1875 L 5.765625 -15.1875 L 5.765625 0 Z M 1.640625 0 "/></g></g></g><g fill="#000000" fill-opacity="1"><g transform="translate(31.922141, 24.773297)"><g><path d="M 16.109375 0 L 10.71875 0 L 5.171875 -10.703125 L 5.078125 -10.703125 C 5.210938 -9.015625 5.28125 -7.726562 5.28125 -6.84375 L 5.28125 0 L 1.640625 0 L 1.640625 -15.1875 L 7 -15.1875 L 12.53125 -4.640625 L 12.59375 -4.640625 C 12.5 -6.171875 12.453125 -7.398438 12.453125 -8.328125 L 12.453125 -15.1875 L 16.109375 -15.1875 Z M 16.109375 0 "/></g></g></g><g fill="#000000" fill-opacity="1"><g transform="translate(49.67484, 24.773297)"><g><path d="M 10.65625 0 L 1.640625 0 L 1.640625 -15.1875 L 10.65625 -15.1875 L 10.65625 -11.890625 L 5.75 -11.890625 L 5.75 -9.515625 L 10.296875 -9.515625 L 10.296875 -6.21875 L 5.75 -6.21875 L 5.75 -3.34375 L 10.65625 -3.34375 Z M 10.65625 0 "/></g></g></g><g fill="#dd88f7" fill-opacity="1"><g transform="translate(10.179186, 54.363719)"><g><path d="M 8.265625 0 L 5.15625 -10.9375 L 5.0625 -10.9375 C 5.207031 -9.070312 5.28125 -7.625 5.28125 -6.59375 L 5.28125 0 L 1.640625 0 L 1.640625 -15.1875 L 7.109375 -15.1875 L 10.28125 -4.40625 L 10.359375 -4.40625 L 13.46875 -15.1875 L 18.9375 -15.1875 L 18.9375 0 L 15.171875 0 L 15.171875 -6.65625 C 15.171875 -7.007812 15.175781 -7.394531 15.1875 -7.8125 C 15.195312 -8.238281 15.242188 -9.273438 15.328125 -10.921875 L 15.234375 -10.921875 L 12.171875 0 Z M 8.265625 0 "/></g></g></g><g fill="#dd88f7" fill-opacity="1"><g transform="translate(30.759014, 54.363719)"><g><path d="M 1.640625 0 L 1.640625 -15.1875 L 5.765625 -15.1875 L 5.765625 0 Z M 1.640625 0 "/></g></g></g><g fill="#dd88f7" fill-opacity="1"><g transform="translate(38.16983, 54.363719)"><g><path d="M 15.328125 0 L 10.578125 0 L 7.609375 -4.75 L 4.6875 0 L 0.046875 0 L 5.078125 -7.765625 L 0.34375 -15.1875 L 4.890625 -15.1875 L 7.640625 -10.5 L 10.28125 -15.1875 L 14.96875 -15.1875 L 10.15625 -7.453125 Z M 15.328125 0 "/></g></g></g></svg>